<?xml version="1.0" encoding="UTF-8"?>
<!DOCTYPE svg PUBLIC "-//W3C//DTD SVG 1.1//EN" "http://www.w3.org/Graphics/SVG/1.1/DTD/svg11.dtd">
<!-- Creator: CorelDRAW 2021 (64-Bit) -->
<svg xmlns="http://www.w3.org/2000/svg" xml:space="preserve" width="0.794303in" height="0.418055in" version="1.1" style="shape-rendering:geometricPrecision; text-rendering:geometricPrecision; image-rendering:optimizeQuality; fill-rule:evenodd; clip-rule:evenodd"
viewBox="0 0 794.3 418.05"
 xmlns:xlink="http://www.w3.org/1999/xlink"
 xmlns:xodm="http://www.corel.com/coreldraw/odm/2003">
 <defs>
  <style type="text/css">
   <![CDATA[
    .fil0 {fill:#DFE5EE}
   ]]>
  </style>
 </defs>
 <g id="Layer_x0020_1">
  <metadata id="CorelCorpID_0Corel-Layer"/>
  <g id="_2466747255504">
   <path class="fil0" d="M612.7 417.85c2.15,-2.85 3.7,-6.41 5.48,-10.17 5.32,-11.26 4.85,-7.84 9.36,-20.08 1.26,-3.41 0.83,-2.22 2.31,-5.25 0.66,-1.36 2.01,-4.21 2.31,-4.99 5.93,-15.32 11.89,-26.63 18.31,-41.2 3.39,-7.69 5.85,-13.3 9.4,-21.42 2.85,-6.5 6.57,-13.32 9.67,-19.76 1.75,-3.65 2.67,-7.08 4.33,-10.63 1.53,-3.26 2.95,-6.52 4.64,-10.22 1.38,-3.02 3.3,-6.37 4.96,-9.78 3.54,-7.27 2.37,-7.53 5.86,-8.62 1.84,3.8 1.16,11.39 1.16,16.79l0.75 143.07c0.04,-0.14 0.2,0.51 0.37,0.72 4.74,2.99 24.38,1.21 31.64,1.19l51.82 0.04c21.43,0.01 19.15,1.47 19.17,-7.54 0.2,-132.56 -1.2,-268.95 0.05,-400.88 0.11,-11.06 -0.84,-8.57 -11.81,-8.61l-92 0.27 -50.85 109.93c-2.47,4.6 -4.59,8.96 -6.67,13.46 -1.24,2.68 -2.02,4.36 -3.4,7.09 -1.65,3.28 -1.27,3.98 -2.59,7.11l-28.97 61.98c-0.98,2.59 -1.84,3.76 -3.16,6.17 -2.01,3.67 -4.7,10.85 -6.95,12.73 -5.57,-1.88 -22.17,-44.57 -27.31,-53.52 -0.19,-0.32 -1.17,-1.79 -1.39,-2.1 -0.12,-0.17 -0.48,-0.27 -0.57,-0.69 -0.09,-0.43 -0.37,-0.48 -0.59,-0.69l-52.7 111.28c-7.41,16.91 -3.65,10.44 5.31,33.02 4.42,11.14 12.39,25.61 14.81,31.54l14.13 32.65c2.4,5.61 5.02,9.31 7.85,15.29l14.66 31.84 50.62 -0.02z"/>
   <path class="fil0" d="M89.76 0.76c-7.8,-0.06 -85.02,-1.8 -89.75,1.11l2.75 7.55c1.66,3.31 2.54,5.06 4.14,8.57 2.56,5.63 5.17,10.68 7.74,16.54l69.61 149.39c6.36,16.66 36.93,71.44 36.96,84.36 0.03,10.99 -1.27,137.06 0.94,143.17 2.64,-1.28 0.95,0.57 3.49,-2.63l22.55 -48.28c4.37,-8.76 7.91,-17.48 11.97,-26.24l60.13 -126.84c2.06,-4.46 3.43,-9.74 5.52,-13.74 2.16,-4.16 4,-8.62 6.21,-12.83l11.62 -25.39c4.07,-8.01 8.52,-17.16 12.43,-25.57l23.79 -51.31c2.11,-4.97 3.82,-8.69 6.07,-13l17.62 -38.44c3.38,-6.85 9.85,-18.38 11.57,-25.87l-80.43 -0.57c-5.76,0.64 -8.56,7.5 -11.15,14.05 -7.14,18.09 -31.17,67.46 -41.39,88.71 -2.22,4.63 -4.74,14.39 -8.81,17.11 -3.77,-1.47 -1.47,0.19 -3.39,-3.46l-26.53 -55.79c-2.39,-5.27 -4.72,-10.39 -7.03,-15.21l-19.6 -41.7c-4.09,-7.02 -14.94,-3.58 -27.01,-3.68z"/>
   <path class="fil0" d="M409.25 357.29c3.12,-6.79 26.48,-55 26.76,-60.76 -8.17,2.89 -17.04,9.67 -31.25,12.97 -18.25,4.24 -34.7,5.15 -52.54,-1.01 -2.32,-0.8 -4.58,-0.91 -6.95,-1.65 -20.2,-6.39 -41.52,-24.96 -52.38,-41.86 -17.59,-27.35 -12.07,-35.61 -17.61,-50.03 -3.87,2 -1.17,-0.87 -3.76,3.61l-8.98 19.53c-5.43,12.11 -46.84,97.09 -46.01,101.05 3.23,6.93 23.52,25.98 30.13,31.34 9.95,8.06 24.68,18.32 36.05,24.1 13.73,6.97 19.34,8.48 33.2,13.5 20.87,7.56 41.66,10.37 65.58,9.09l27.74 -59.88z"/>
   <path class="fil0" d="M313.25 129.44c3.42,-0.79 10.17,-6.36 14.09,-8.62 9.63,-5.54 22.17,-11.4 34.1,-12.59 15.15,-1.51 25.64,-3.77 42.63,1.14 12.01,3.47 2.88,-1.22 18.21,6.17 9.57,4.61 13.93,7.05 21.73,13.22 6.77,5.36 12.21,3.74 26.47,3.61l41.24 -0.38c3.23,-0.63 6.73,-9.53 7.93,-12.26 1.94,-4.43 4.24,-9.22 6.45,-13.65 2.13,-4.27 12.16,-25.04 12.38,-28.24 0.8,-11.67 -50.26,-48.41 -65.81,-55.17 -5.18,-2.25 -8.57,-4.09 -14.34,-5.94l-14.39 -5.5c-21.48,-7.45 -43.26,-11.14 -70.75,-10.34 -2.69,4.35 -4.9,10.28 -7.48,15.64l-27.77 56.51c-0.09,0.2 -0.23,0.47 -0.31,0.69 -0.09,0.22 -0.2,0.49 -0.28,0.72l-16.59 38.89c-1.39,3.11 -7,12.25 -7.54,16.11z"/>
   <path class="fil0" d="M379.51 261.94c1.72,0.69 67.33,4.59 72.8,0.84l35.81 -76.87c-0.93,-3.57 -11.81,-2.07 -16.58,-2.06 -12.3,0.01 -89.1,-1.53 -91.78,1.13l-1.21 3.97c-0.14,1.38 -0.01,3.8 0.01,5.3 0.12,13.46 -1.52,62.04 0.96,67.71z"/>
   <path class="fil0" d="M483.85 321.46c-1.3,1.77 -0.77,1.32 -2,3.51 -1.06,1.9 -0.89,1.52 -1.94,3.5 -1.42,2.68 -2.36,4.83 -3.81,7.78l-16.84 34.87c-0.11,0.22 -0.24,0.5 -0.34,0.72 -0.45,0.99 -1.16,2.91 -1.51,3.76 -19.23,47.31 -28.31,42.05 4.62,41.91 26.04,-0.12 22.24,5.36 22.24,-24.44 0,-18.52 0.98,-57.31 -0.41,-71.62z"/>
  </g>
 </g>
</svg>
